<svg width="262" height="69" viewBox="0 0 262 69" fill="none" xmlns="http://www.w3.org/2000/svg">
<path d="M71.3 48.21C69.84 48.21 68.52 47.96 67.34 47.46C66.18 46.96 65.26 46.24 64.58 45.3C63.9 44.36 63.55 43.25 63.53 41.97H68.03C68.09 42.83 68.39 43.51 68.93 44.01C69.49 44.51 70.25 44.76 71.21 44.76C72.19 44.76 72.96 44.53 73.52 44.07C74.08 43.59 74.36 42.97 74.36 42.21C74.36 41.59 74.17 41.08 73.79 40.68C73.41 40.28 72.93 39.97 72.35 39.75C71.79 39.51 71.01 39.25 70.01 38.97C68.65 38.57 67.54 38.18 66.68 37.8C65.84 37.4 65.11 36.81 64.49 36.03C63.89 35.23 63.59 34.17 63.59 32.85C63.59 31.61 63.9 30.53 64.52 29.61C65.14 28.69 66.01 27.99 67.13 27.51C68.25 27.01 69.53 26.76 70.97 26.76C73.13 26.76 74.88 27.29 76.22 28.35C77.58 29.39 78.33 30.85 78.47 32.73H73.85C73.81 32.01 73.5 31.42 72.92 30.96C72.36 30.48 71.61 30.24 70.67 30.24C69.85 30.24 69.19 30.45 68.69 30.87C68.21 31.29 67.97 31.9 67.97 32.7C67.97 33.26 68.15 33.73 68.51 34.11C68.89 34.47 69.35 34.77 69.89 35.01C70.45 35.23 71.23 35.49 72.23 35.79C73.59 36.19 74.7 36.59 75.56 36.99C76.42 37.39 77.16 37.99 77.78 38.79C78.4 39.59 78.71 40.64 78.71 41.94C78.71 43.06 78.42 44.1 77.84 45.06C77.26 46.02 76.41 46.79 75.29 47.37C74.17 47.93 72.84 48.21 71.3 48.21ZM97.9513 51.69L94.7713 47.88C93.8913 48.1 92.9913 48.21 92.0713 48.21C90.1113 48.21 88.3113 47.75 86.6713 46.83C85.0313 45.91 83.7313 44.64 82.7713 43.02C81.8113 41.38 81.3313 39.53 81.3313 37.47C81.3313 35.43 81.8113 33.6 82.7713 31.98C83.7313 30.34 85.0313 29.06 86.6713 28.14C88.3113 27.22 90.1113 26.76 92.0713 26.76C94.0513 26.76 95.8513 27.22 97.4713 28.14C99.1113 29.06 100.401 30.34 101.341 31.98C102.301 33.6 102.781 35.43 102.781 37.47C102.781 39.33 102.381 41.03 101.581 42.57C100.801 44.09 99.7313 45.33 98.3713 46.29L103.171 51.69H97.9513ZM85.6513 37.47C85.6513 38.87 85.9213 40.1 86.4613 41.16C87.0013 42.22 87.7513 43.04 88.7113 43.62C89.6913 44.18 90.8113 44.46 92.0713 44.46C93.3313 44.46 94.4413 44.18 95.4013 43.62C96.3613 43.04 97.1113 42.22 97.6513 41.16C98.1913 40.1 98.4613 38.87 98.4613 37.47C98.4613 36.07 98.1913 34.85 97.6513 33.81C97.1113 32.75 96.3613 31.94 95.4013 31.38C94.4413 30.82 93.3313 30.54 92.0713 30.54C90.8113 30.54 89.6913 30.82 88.7113 31.38C87.7513 31.94 87.0013 32.75 86.4613 33.81C85.9213 34.85 85.6513 36.07 85.6513 37.47ZM110.105 27.06V40.02C110.105 41.44 110.475 42.53 111.215 43.29C111.955 44.03 112.995 44.4 114.335 44.4C115.695 44.4 116.745 44.03 117.485 43.29C118.225 42.53 118.595 41.44 118.595 40.02V27.06H122.825V39.99C122.825 41.77 122.435 43.28 121.655 44.52C120.895 45.74 119.865 46.66 118.565 47.28C117.285 47.9 115.855 48.21 114.275 48.21C112.715 48.21 111.295 47.9 110.015 47.28C108.755 46.66 107.755 45.74 107.015 44.52C106.275 43.28 105.905 41.77 105.905 39.99V27.06H110.105ZM139.723 44.01H131.383L130.003 48H125.593L133.123 27.03H138.013L145.543 48H141.103L139.723 44.01ZM138.583 40.65L135.553 31.89L132.522 40.65H138.583ZM155.677 27.06C157.877 27.06 159.807 27.49 161.467 28.35C163.147 29.21 164.437 30.44 165.337 32.04C166.257 33.62 166.717 35.46 166.717 37.56C166.717 39.66 166.257 41.5 165.337 43.08C164.437 44.64 163.147 45.85 161.467 46.71C159.807 47.57 157.877 48 155.677 48H148.357V27.06H155.677ZM155.527 44.43C157.727 44.43 159.427 43.83 160.627 42.63C161.827 41.43 162.427 39.74 162.427 37.56C162.427 35.38 161.827 33.68 160.627 32.46C159.427 31.22 157.727 30.6 155.527 30.6H152.557V44.43H155.527ZM180.661 48L176.041 39.84H174.061V48H169.861V27.06H177.721C179.341 27.06 180.721 27.35 181.861 27.93C183.001 28.49 183.851 29.26 184.411 30.24C184.991 31.2 185.281 32.28 185.281 33.48C185.281 34.86 184.881 36.11 184.081 37.23C183.281 38.33 182.091 39.09 180.511 39.51L185.521 48H180.661ZM174.061 36.69H177.571C178.711 36.69 179.561 36.42 180.121 35.88C180.681 35.32 180.961 34.55 180.961 33.57C180.961 32.61 180.681 31.87 180.121 31.35C179.561 30.81 178.711 30.54 177.571 30.54H174.061V36.69ZM198.8 48.21C196.84 48.21 195.04 47.75 193.4 46.83C191.76 45.91 190.46 44.64 189.5 43.02C188.54 41.38 188.06 39.53 188.06 37.47C188.06 35.43 188.54 33.6 189.5 31.98C190.46 30.34 191.76 29.06 193.4 28.14C195.04 27.22 196.84 26.76 198.8 26.76C200.78 26.76 202.58 27.22 204.2 28.14C205.84 29.06 207.13 30.34 208.07 31.98C209.03 33.6 209.51 35.43 209.51 37.47C209.51 39.53 209.03 41.38 208.07 43.02C207.13 44.64 205.84 45.91 204.2 46.83C202.56 47.75 200.76 48.21 198.8 48.21ZM198.8 44.46C200.06 44.46 201.17 44.18 202.13 43.62C203.09 43.04 203.84 42.22 204.38 41.16C204.92 40.1 205.19 38.87 205.19 37.47C205.19 36.07 204.92 34.85 204.38 33.81C203.84 32.75 203.09 31.94 202.13 31.38C201.17 30.82 200.06 30.54 198.8 30.54C197.54 30.54 196.42 30.82 195.44 31.38C194.48 31.94 193.73 32.75 193.19 33.81C192.65 34.85 192.38 36.07 192.38 37.47C192.38 38.87 192.65 40.1 193.19 41.16C193.73 42.22 194.48 43.04 195.44 43.62C196.42 44.18 197.54 44.46 198.8 44.46ZM230.544 48H226.344L216.834 33.63V48H212.634V27.03H216.834L226.344 41.43V27.03H230.544V48Z" fill="white"/>
<path d="M71.3 48.21C69.84 48.21 68.52 47.96 67.34 47.46C66.18 46.96 65.26 46.24 64.58 45.3C63.9 44.36 63.55 43.25 63.53 41.97H68.03C68.09 42.83 68.39 43.51 68.93 44.01C69.49 44.51 70.25 44.76 71.21 44.76C72.19 44.76 72.96 44.53 73.52 44.07C74.08 43.59 74.36 42.97 74.36 42.21C74.36 41.59 74.17 41.08 73.79 40.68C73.41 40.28 72.93 39.97 72.35 39.75C71.79 39.51 71.01 39.25 70.01 38.97C68.65 38.57 67.54 38.18 66.68 37.8C65.84 37.4 65.11 36.81 64.49 36.03C63.89 35.23 63.59 34.17 63.59 32.85C63.59 31.61 63.9 30.53 64.52 29.61C65.14 28.69 66.01 27.99 67.13 27.51C68.25 27.01 69.53 26.76 70.97 26.76C73.13 26.76 74.88 27.29 76.22 28.35C77.58 29.39 78.33 30.85 78.47 32.73H73.85C73.81 32.01 73.5 31.42 72.92 30.96C72.36 30.48 71.61 30.24 70.67 30.24C69.85 30.24 69.19 30.45 68.69 30.87C68.21 31.29 67.97 31.9 67.97 32.7C67.97 33.26 68.15 33.73 68.51 34.11C68.89 34.47 69.35 34.77 69.89 35.01C70.45 35.23 71.23 35.49 72.23 35.79C73.59 36.19 74.7 36.59 75.56 36.99C76.42 37.39 77.16 37.99 77.78 38.79C78.4 39.59 78.71 40.64 78.71 41.94C78.71 43.06 78.42 44.1 77.84 45.06C77.26 46.02 76.41 46.79 75.29 47.37C74.17 47.93 72.84 48.21 71.3 48.21ZM97.9513 51.69L94.7713 47.88C93.8913 48.1 92.9913 48.21 92.0713 48.21C90.1113 48.21 88.3113 47.75 86.6713 46.83C85.0313 45.91 83.7313 44.64 82.7713 43.02C81.8113 41.38 81.3313 39.53 81.3313 37.47C81.3313 35.43 81.8113 33.6 82.7713 31.98C83.7313 30.34 85.0313 29.06 86.6713 28.14C88.3113 27.22 90.1113 26.76 92.0713 26.76C94.0513 26.76 95.8513 27.22 97.4713 28.14C99.1113 29.06 100.401 30.34 101.341 31.98C102.301 33.6 102.781 35.43 102.781 37.47C102.781 39.33 102.381 41.03 101.581 42.57C100.801 44.09 99.7313 45.33 98.3713 46.29L103.171 51.69H97.9513ZM85.6513 37.47C85.6513 38.87 85.9213 40.1 86.4613 41.16C87.0013 42.22 87.7513 43.04 88.7113 43.62C89.6913 44.18 90.8113 44.46 92.0713 44.46C93.3313 44.46 94.4413 44.18 95.4013 43.62C96.3613 43.04 97.1113 42.22 97.6513 41.16C98.1913 40.1 98.4613 38.87 98.4613 37.47C98.4613 36.07 98.1913 34.85 97.6513 33.81C97.1113 32.75 96.3613 31.94 95.4013 31.38C94.4413 30.82 93.3313 30.54 92.0713 30.54C90.8113 30.54 89.6913 30.82 88.7113 31.38C87.7513 31.94 87.0013 32.75 86.4613 33.81C85.9213 34.85 85.6513 36.07 85.6513 37.47ZM110.105 27.06V40.02C110.105 41.44 110.475 42.53 111.215 43.29C111.955 44.03 112.995 44.4 114.335 44.4C115.695 44.4 116.745 44.03 117.485 43.29C118.225 42.53 118.595 41.44 118.595 40.02V27.06H122.825V39.99C122.825 41.77 122.435 43.28 121.655 44.52C120.895 45.74 119.865 46.66 118.565 47.28C117.285 47.9 115.855 48.21 114.275 48.21C112.715 48.21 111.295 47.9 110.015 47.28C108.755 46.66 107.755 45.74 107.015 44.52C106.275 43.28 105.905 41.77 105.905 39.99V27.06H110.105ZM139.723 44.01H131.383L130.003 48H125.593L133.123 27.03H138.013L145.543 48H141.103L139.723 44.01ZM138.583 40.65L135.553 31.89L132.522 40.65H138.583ZM155.677 27.06C157.877 27.06 159.807 27.49 161.467 28.35C163.147 29.21 164.437 30.44 165.337 32.04C166.257 33.62 166.717 35.46 166.717 37.56C166.717 39.66 166.257 41.5 165.337 43.08C164.437 44.64 163.147 45.85 161.467 46.71C159.807 47.57 157.877 48 155.677 48H148.357V27.06H155.677ZM155.527 44.43C157.727 44.43 159.427 43.83 160.627 42.63C161.827 41.43 162.427 39.74 162.427 37.56C162.427 35.38 161.827 33.68 160.627 32.46C159.427 31.22 157.727 30.6 155.527 30.6H152.557V44.43H155.527ZM180.661 48L176.041 39.84H174.061V48H169.861V27.06H177.721C179.341 27.06 180.721 27.35 181.861 27.93C183.001 28.49 183.851 29.26 184.411 30.24C184.991 31.2 185.281 32.28 185.281 33.48C185.281 34.86 184.881 36.11 184.081 37.23C183.281 38.33 182.091 39.09 180.511 39.51L185.521 48H180.661ZM174.061 36.69H177.571C178.711 36.69 179.561 36.42 180.121 35.88C180.681 35.32 180.961 34.55 180.961 33.57C180.961 32.61 180.681 31.87 180.121 31.35C179.561 30.81 178.711 30.54 177.571 30.54H174.061V36.69ZM198.8 48.21C196.84 48.21 195.04 47.75 193.4 46.83C191.76 45.91 190.46 44.64 189.5 43.02C188.54 41.38 188.06 39.53 188.06 37.47C188.06 35.43 188.54 33.6 189.5 31.98C190.46 30.34 191.76 29.06 193.4 28.14C195.04 27.22 196.84 26.76 198.8 26.76C200.78 26.76 202.58 27.22 204.2 28.14C205.84 29.06 207.13 30.34 208.07 31.98C209.03 33.6 209.51 35.43 209.51 37.47C209.51 39.53 209.03 41.38 208.07 43.02C207.13 44.64 205.84 45.91 204.2 46.83C202.56 47.75 200.76 48.21 198.8 48.21ZM198.8 44.46C200.06 44.46 201.17 44.18 202.13 43.62C203.09 43.04 203.84 42.22 204.38 41.16C204.92 40.1 205.19 38.87 205.19 37.47C205.19 36.07 204.92 34.85 204.38 33.81C203.84 32.75 203.09 31.94 202.13 31.38C201.17 30.82 200.06 30.54 198.8 30.54C197.54 30.54 196.42 30.82 195.44 31.38C194.48 31.94 193.73 32.75 193.19 33.81C192.65 34.85 192.38 36.07 192.38 37.47C192.38 38.87 192.65 40.1 193.19 41.16C193.73 42.22 194.48 43.04 195.44 43.62C196.42 44.18 197.54 44.46 198.8 44.46ZM230.544 48H226.344L216.834 33.63V48H212.634V27.03H216.834L226.344 41.43V27.03H230.544V48Z" fill="url(#paint0_linear_83_11)"/>
<path d="M237.772 46.152H240.126L239.796 48H235L236.375 40.212H238.817L237.772 46.152ZM244.381 40.212L243.006 48H240.564L241.939 40.212H244.381ZM251.578 48H249.136L247.244 44.084L246.551 48H244.109L245.484 40.212H247.926L249.807 44.194L250.511 40.212H252.953L251.578 48ZM258.138 43.941L260.294 48H257.39L255.718 44.612L255.124 48H252.682L254.057 40.212H256.499L255.916 43.49L258.732 40.212H261.493L258.138 43.941Z" fill="white"/>
<path d="M237.772 46.152H240.126L239.796 48H235L236.375 40.212H238.817L237.772 46.152ZM244.381 40.212L243.006 48H240.564L241.939 40.212H244.381ZM251.578 48H249.136L247.244 44.084L246.551 48H244.109L245.484 40.212H247.926L249.807 44.194L250.511 40.212H252.953L251.578 48ZM258.138 43.941L260.294 48H257.39L255.718 44.612L255.124 48H252.682L254.057 40.212H256.499L255.916 43.49L258.732 40.212H261.493L258.138 43.941Z" fill="url(#paint1_linear_83_11)"/>
<path fill-rule="evenodd" clip-rule="evenodd" d="M5.59583 0.656472C5.66772 1.01753 5.83998 1.98434 5.97825 2.80493C6.60136 6.50481 8.32646 11.3322 10.4893 15.4294L11.5192 17.3804L10.1951 16.0358L8.87079 14.6912L5.87099 14.9423C2.40816 15.2322 0 15.6468 0 15.9527C0 16.328 2.86958 19.6173 4.85306 21.5155C9.46841 25.9325 14.2209 28.9105 20.0967 31.0674C22.0214 31.7742 25.5712 32.7199 27.3315 32.9948C28.6027 33.1936 34.7144 35.7084 34.1772 35.8119C33.9643 35.8528 33.1956 35.7766 32.4693 35.6425C31.4454 35.4534 31.1085 35.463 30.9705 35.6857C30.538 36.3828 29.8384 40.2826 29.7086 42.7203C29.1524 53.166 34.7358 63.0401 43.9297 67.8707C46.8671 69.4141 46.7449 69.4245 47.1137 67.5983C47.3108 66.6227 47.4208 64.6285 47.4082 62.2547C47.3907 58.9331 47.314 58.1903 46.7862 56.2149C46.455 54.9761 45.8282 53.1398 45.3932 52.1344C44.4674 49.9945 42.7701 47.1101 42.3395 46.9451C42.1741 46.8818 41.5537 46.9951 40.9605 47.1971C40.3672 47.3991 39.8252 47.5644 39.7558 47.5644C39.6865 47.5644 40.7336 46.8409 42.0827 45.9565C48.4119 41.8083 52.5665 36.0998 54.1935 29.3163C55.0279 25.8368 57.592 22.96 61.5009 21.1173C63.9109 19.9811 66.7123 18.9404 68.7881 18.4097C70.7989 17.8957 70.3515 17.8225 67.1158 18.1365C62.8114 18.5541 59.8601 18.386 57.5284 17.5905C55.3242 16.8383 51.4016 16.5766 49.0892 17.0276C46.0361 17.6228 43.1321 19.0985 40.6835 21.2984L39.5659 22.3026L38.0594 19.9563C35.6056 16.1336 32.377 12.4945 28.7973 9.51632C22.9738 4.67128 14.2877 0.955099 6.92382 0.157921L5.46469 0L5.59583 0.656472Z" fill="url(#paint2_linear_83_11)"/>
<defs>
<linearGradient id="paint0_linear_83_11" x1="62" y1="37.5" x2="233" y2="37.5" gradientUnits="userSpaceOnUse">
<stop stop-color="#F6758B"/>
<stop offset="1" stop-color="#F9AB76"/>
</linearGradient>
<linearGradient id="paint1_linear_83_11" x1="235" y1="44.5" x2="261" y2="44.5" gradientUnits="userSpaceOnUse">
<stop stop-color="#F6758B"/>
<stop offset="1" stop-color="#F9AB76"/>
</linearGradient>
<linearGradient id="paint2_linear_83_11" x1="50.7585" y1="22.7745" x2="5.98667" y2="50.3433" gradientUnits="userSpaceOnUse">
<stop stop-color="#F5748A"/>
<stop offset="1" stop-color="#FBCB69"/>
</linearGradient>
</defs>
</svg>
